<mxfile host="app.diagrams.net" modified="2023-08-23T15:59:41.645Z" agent="Mozilla/5.0 (Windows NT 10.0; Win64; x64) AppleWebKit/537.36 (KHTML, like Gecko) Chrome/116.0.0.0 Safari/537.36" etag="bO5Un3zBc9CpUS0eEoQS" version="21.6.9" type="github">
  <diagram name="Página-1" id="Pv-uPSXKJwnVkepwn0U3">
    <mxGraphModel dx="1450" dy="594" grid="0" gridSize="10" guides="1" tooltips="1" connect="1" arrows="1" fold="1" page="0" pageScale="1" pageWidth="827" pageHeight="1169" math="0" shadow="0">
      <root>
        <mxCell id="0" />
        <mxCell id="1" parent="0" />
        <mxCell id="guSIaSDa5D-_uKVz6Epk-13" style="edgeStyle=orthogonalEdgeStyle;rounded=0;orthogonalLoop=1;jettySize=auto;html=1;entryX=0.5;entryY=0;entryDx=0;entryDy=0;" parent="1" source="_ZVavmt4DmscRp0UoZDF-1" target="guSIaSDa5D-_uKVz6Epk-1" edge="1">
          <mxGeometry relative="1" as="geometry" />
        </mxCell>
        <mxCell id="_ZVavmt4DmscRp0UoZDF-1" value="Contrato" style="whiteSpace=wrap;html=1;align=center;" parent="1" vertex="1">
          <mxGeometry x="-100" y="220" width="100" height="40" as="geometry" />
        </mxCell>
        <mxCell id="guSIaSDa5D-_uKVz6Epk-14" style="edgeStyle=orthogonalEdgeStyle;rounded=0;orthogonalLoop=1;jettySize=auto;html=1;entryX=0;entryY=0.5;entryDx=0;entryDy=0;" parent="1" source="guSIaSDa5D-_uKVz6Epk-1" target="guSIaSDa5D-_uKVz6Epk-6" edge="1">
          <mxGeometry relative="1" as="geometry">
            <Array as="points">
              <mxPoint x="173" y="360" />
            </Array>
          </mxGeometry>
        </mxCell>
        <mxCell id="guSIaSDa5D-_uKVz6Epk-1" value="Demanda" style="whiteSpace=wrap;html=1;align=center;" parent="1" vertex="1">
          <mxGeometry x="-100" y="340" width="100" height="40" as="geometry" />
        </mxCell>
        <mxCell id="guSIaSDa5D-_uKVz6Epk-3" style="edgeStyle=orthogonalEdgeStyle;rounded=0;orthogonalLoop=1;jettySize=auto;html=1;entryX=0.5;entryY=0;entryDx=0;entryDy=0;" parent="1" source="guSIaSDa5D-_uKVz6Epk-2" target="_ZVavmt4DmscRp0UoZDF-1" edge="1">
          <mxGeometry relative="1" as="geometry" />
        </mxCell>
        <mxCell id="guSIaSDa5D-_uKVz6Epk-18" style="edgeStyle=orthogonalEdgeStyle;rounded=0;orthogonalLoop=1;jettySize=auto;html=1;entryX=0.5;entryY=0;entryDx=0;entryDy=0;" parent="1" source="guSIaSDa5D-_uKVz6Epk-2" target="guSIaSDa5D-_uKVz6Epk-6" edge="1">
          <mxGeometry relative="1" as="geometry" />
        </mxCell>
        <mxCell id="guSIaSDa5D-_uKVz6Epk-2" value="Produto" style="whiteSpace=wrap;html=1;align=center;" parent="1" vertex="1">
          <mxGeometry x="-100" y="100" width="100" height="40" as="geometry" />
        </mxCell>
        <mxCell id="guSIaSDa5D-_uKVz6Epk-6" value="ProdutosDemanda" style="whiteSpace=wrap;html=1;align=center;" parent="1" vertex="1">
          <mxGeometry x="364" y="340" width="123" height="40" as="geometry" />
        </mxCell>
        <mxCell id="guSIaSDa5D-_uKVz6Epk-8" value="Tabela que reflete os produtos do contrato que está expirando" style="text;html=1;strokeColor=none;fillColor=none;align=center;verticalAlign=middle;whiteSpace=wrap;rounded=0;" parent="1" vertex="1">
          <mxGeometry x="-180" y="60" width="260" height="30" as="geometry" />
        </mxCell>
        <mxCell id="guSIaSDa5D-_uKVz6Epk-9" value="Após vincular o(s) contrato(s) na demanda, iremos fazer as edições entre todos os produtos de todos os contratos e selecionar todos aqueles que iremos seguir com a renovação" style="text;html=1;strokeColor=none;fillColor=none;align=center;verticalAlign=middle;whiteSpace=wrap;rounded=0;" parent="1" vertex="1">
          <mxGeometry x="-174" y="412" width="260" height="30" as="geometry" />
        </mxCell>
        <mxCell id="guSIaSDa5D-_uKVz6Epk-10" value="Tabela que reflete os produtos &lt;br&gt;(selecionados, editados e inseridos)&lt;br&gt;vinculados a demanda" style="text;html=1;strokeColor=none;fillColor=none;align=center;verticalAlign=middle;whiteSpace=wrap;rounded=0;" parent="1" vertex="1">
          <mxGeometry x="299" y="397" width="260" height="30" as="geometry" />
        </mxCell>
        <mxCell id="guSIaSDa5D-_uKVz6Epk-15" value="Acredito que para a lógica funcionar da maneira adequada, seria necessário &quot;clonar&quot; todos os produtos de todos os contratos selecionados para dentro dessa tabela" style="text;html=1;strokeColor=none;fillColor=none;align=center;verticalAlign=middle;whiteSpace=wrap;rounded=0;" parent="1" vertex="1">
          <mxGeometry x="270" y="435" width="311" height="58" as="geometry" />
        </mxCell>
        <mxCell id="guSIaSDa5D-_uKVz6Epk-16" value="id: PK&lt;br&gt;idDemanda: FK&lt;br&gt;idProdutoOriginal: FK&lt;br&gt;&lt;br&gt;...CamposProdutoEditados" style="text;html=1;strokeColor=#10739e;fillColor=#b1ddf0;align=center;verticalAlign=middle;whiteSpace=wrap;rounded=0;" parent="1" vertex="1">
          <mxGeometry x="492" y="304" width="155" height="76" as="geometry" />
        </mxCell>
        <mxCell id="guSIaSDa5D-_uKVz6Epk-19" value="id: PK" style="text;html=1;align=center;verticalAlign=middle;resizable=0;points=[];autosize=1;strokeColor=#10739e;fillColor=#b1ddf0;" parent="1" vertex="1">
          <mxGeometry x="-169" y="347" width="50" height="26" as="geometry" />
        </mxCell>
        <mxCell id="guSIaSDa5D-_uKVz6Epk-20" value="id: PK&lt;br&gt;idDemanda: FK" style="text;html=1;align=center;verticalAlign=middle;resizable=0;points=[];autosize=1;strokeColor=#10739e;fillColor=#b1ddf0;" parent="1" vertex="1">
          <mxGeometry x="-220" y="220" width="101" height="41" as="geometry" />
        </mxCell>
        <mxCell id="guSIaSDa5D-_uKVz6Epk-21" value="id: PK&lt;br&gt;idContrato: FK" style="text;html=1;align=center;verticalAlign=middle;resizable=0;points=[];autosize=1;strokeColor=#10739e;fillColor=#b1ddf0;" parent="1" vertex="1">
          <mxGeometry x="-214" y="99.5" width="95" height="41" as="geometry" />
        </mxCell>
      </root>
    </mxGraphModel>
  </diagram>
</mxfile>
